<svg xmlns="http://www.w3.org/2000/svg" viewBox="0 0 800 450" width="100%" height="100%">
    <defs>
        <linearGradient id="bgGrad" x1="0%" y1="0%" x2="100%" y2="100%">
            <stop offset="0%" stop-color="#002266"/>
            <stop offset="100%" stop-color="#2d0b0b"/>
        </linearGradient>
        <linearGradient id="mountGrad" x1="50%" y1="0%" x2="50%" y2="100%">
            <stop offset="0%" stop-color="#ef4444" stop-opacity="0.8"/>
            <stop offset="100%" stop-color="#002266" stop-opacity="0.2"/>
        </linearGradient>
        <linearGradient id="fireGrad" x1="50%" y1="0%" x2="50%" y2="100%">
            <stop offset="0%" stop-color="#ef4444"/>
            <stop offset="100%" stop-color="#ea580c"/>
        </linearGradient>
        <marker id="arrow" viewBox="0 0 10 10" refX="5" refY="5" markerWidth="6" markerHeight="6" orient="auto-start-reverse">
            <path d="M 0 1 L 10 5 L 0 9 z" fill="#ffffff"/>
        </marker>
    </defs>
    
    <!-- Background -->
    <rect width="100%" height="100%" fill="url(#bgGrad)"/>
    
    <!-- Background Grid -->
    <g opacity="0.15"><line x1="0" y1="45" x2="800" y2="45" stroke="#ffffff" stroke-width="1"/><line x1="80" y1="0" x2="80" y2="450" stroke="#ffffff" stroke-width="1"/><line x1="0" y1="90" x2="800" y2="90" stroke="#ffffff" stroke-width="1"/><line x1="160" y1="0" x2="160" y2="450" stroke="#ffffff" stroke-width="1"/><line x1="0" y1="135" x2="800" y2="135" stroke="#ffffff" stroke-width="1"/><line x1="240" y1="0" x2="240" y2="450" stroke="#ffffff" stroke-width="1"/><line x1="0" y1="180" x2="800" y2="180" stroke="#ffffff" stroke-width="1"/><line x1="320" y1="0" x2="320" y2="450" stroke="#ffffff" stroke-width="1"/><line x1="0" y1="225" x2="800" y2="225" stroke="#ffffff" stroke-width="1"/><line x1="400" y1="0" x2="400" y2="450" stroke="#ffffff" stroke-width="1"/><line x1="0" y1="270" x2="800" y2="270" stroke="#ffffff" stroke-width="1"/><line x1="480" y1="0" x2="480" y2="450" stroke="#ffffff" stroke-width="1"/><line x1="0" y1="315" x2="800" y2="315" stroke="#ffffff" stroke-width="1"/><line x1="560" y1="0" x2="560" y2="450" stroke="#ffffff" stroke-width="1"/><line x1="0" y1="360" x2="800" y2="360" stroke="#ffffff" stroke-width="1"/><line x1="640" y1="0" x2="640" y2="450" stroke="#ffffff" stroke-width="1"/><line x1="0" y1="405" x2="800" y2="405" stroke="#ffffff" stroke-width="1"/><line x1="720" y1="0" x2="720" y2="450" stroke="#ffffff" stroke-width="1"/><circle cx="400" cy="225" r="160" fill="none" stroke="#ffcc00" stroke-dasharray="5,5" stroke-width="1.5"/><circle cx="400" cy="225" r="230" fill="none" stroke="#ef4444" stroke-dasharray="10,5" stroke-width="1"/></g>
    
    <!-- Unique Graphic Content -->
    
        <!-- Left: forest, Right: building, Split down middle -->
        <g opacity="0.8">
            <!-- Left Side: green forest -->
            <path d="M 250 120 L 400 120 L 400 300 L 250 300 Z" fill="#064e3b"/>
            <polygon points="325,160 355,220 295,220" fill="#10b981"/>
            <polygon points="325,200 365,270 285,270" fill="#10b981"/>
            
            <!-- Right Side: urban house / cleared land -->
            <path d="M 400 120 L 550 120 L 550 300 L 400 300 Z" fill="#78350f"/>
            <rect x="440" y="190" width="70" height="70" fill="#cbd5e1" stroke="#475569" stroke-width="2"/>
            <polygon points="430,190 475,150 520,190" fill="#ef4444" stroke="#475569" stroke-width="2"/>
        </g>
        <!-- Dividing slash representing change -->
        <line x1="400" y1="100" x2="400" y2="320" stroke="#f59e0b" stroke-width="4"/>
        <!-- Clockwise exchange arrow -->
        <path d="M 380 160 Q 400 140 420 160" fill="none" stroke="#ffffff" stroke-width="3" marker-end="url(#arrow)"/>
        
    
    <!-- Label Badges & Text Overlay -->
    <!-- Grupo badge -->
    <rect x="40" y="40" width="230" height="30" rx="4" fill="rgba(255,255,255,0.12)" stroke="rgba(255,255,255,0.2)" stroke-width="1" style="backdrop-filter: blur(5px);"/>
    <text x="55" y="59" fill="#ffffff" font-family="'Noto Sans', sans-serif" font-size="11" font-weight="bold" letter-spacing="0.5">Grupo 2: Incendios y Alertas</text>
    
    <!-- ID Display -->
    <text x="760" y="80" fill="rgba(255,255,255,0.08)" font-family="'Noto Sans', sans-serif" font-size="72" font-weight="bold" text-anchor="end">10</text>
    
    <!-- Title -->
    <text x="40" y="360" fill="#ffffff" font-family="'Noto Sans', sans-serif" font-size="20" font-weight="bold">
        <tspan x="40" dy="0">Sistema de Detección Temprana de Cambio de Uso de Suelo</tspan>
    </text>
    
    <!-- Institution / Country -->
    <text x="40" y="400" fill="#ef4444" font-family="'Noto Sans', sans-serif" font-size="13" font-weight="bold">Asociación Nacional para la Conservación de l... | <tspan fill="#ffffff" font-weight="normal">Panamá</tspan></text>
</svg>
