<svg xmlns="http://www.w3.org/2000/svg" viewBox="0 0 800 450" width="100%" height="100%">
    <defs>
        <linearGradient id="bgGrad" x1="0%" y1="0%" x2="100%" y2="100%">
            <stop offset="0%" stop-color="#002266"/>
            <stop offset="100%" stop-color="#022c22"/>
        </linearGradient>
        <linearGradient id="mountGrad" x1="50%" y1="0%" x2="50%" y2="100%">
            <stop offset="0%" stop-color="#10b981" stop-opacity="0.8"/>
            <stop offset="100%" stop-color="#002266" stop-opacity="0.2"/>
        </linearGradient>
        <linearGradient id="fireGrad" x1="50%" y1="0%" x2="50%" y2="100%">
            <stop offset="0%" stop-color="#ef4444"/>
            <stop offset="100%" stop-color="#ea580c"/>
        </linearGradient>
        <marker id="arrow" viewBox="0 0 10 10" refX="5" refY="5" markerWidth="6" markerHeight="6" orient="auto-start-reverse">
            <path d="M 0 1 L 10 5 L 0 9 z" fill="#ffffff"/>
        </marker>
    </defs>
    
    <!-- Background -->
    <rect width="100%" height="100%" fill="url(#bgGrad)"/>
    
    <!-- Background Grid -->
    <g opacity="0.15"><line x1="0" y1="45" x2="800" y2="45" stroke="#ffffff" stroke-width="1"/><line x1="80" y1="0" x2="80" y2="450" stroke="#ffffff" stroke-width="1"/><line x1="0" y1="90" x2="800" y2="90" stroke="#ffffff" stroke-width="1"/><line x1="160" y1="0" x2="160" y2="450" stroke="#ffffff" stroke-width="1"/><line x1="0" y1="135" x2="800" y2="135" stroke="#ffffff" stroke-width="1"/><line x1="240" y1="0" x2="240" y2="450" stroke="#ffffff" stroke-width="1"/><line x1="0" y1="180" x2="800" y2="180" stroke="#ffffff" stroke-width="1"/><line x1="320" y1="0" x2="320" y2="450" stroke="#ffffff" stroke-width="1"/><line x1="0" y1="225" x2="800" y2="225" stroke="#ffffff" stroke-width="1"/><line x1="400" y1="0" x2="400" y2="450" stroke="#ffffff" stroke-width="1"/><line x1="0" y1="270" x2="800" y2="270" stroke="#ffffff" stroke-width="1"/><line x1="480" y1="0" x2="480" y2="450" stroke="#ffffff" stroke-width="1"/><line x1="0" y1="315" x2="800" y2="315" stroke="#ffffff" stroke-width="1"/><line x1="560" y1="0" x2="560" y2="450" stroke="#ffffff" stroke-width="1"/><line x1="0" y1="360" x2="800" y2="360" stroke="#ffffff" stroke-width="1"/><line x1="640" y1="0" x2="640" y2="450" stroke="#ffffff" stroke-width="1"/><line x1="0" y1="405" x2="800" y2="405" stroke="#ffffff" stroke-width="1"/><line x1="720" y1="0" x2="720" y2="450" stroke="#ffffff" stroke-width="1"/><circle cx="400" cy="225" r="160" fill="none" stroke="#ffcc00" stroke-dasharray="5,5" stroke-width="1.5"/><circle cx="400" cy="225" r="230" fill="none" stroke="#10b981" stroke-dasharray="10,5" stroke-width="1"/></g>
    
    <!-- Unique Graphic Content -->
    
        <!-- Forest nodes network corridor background -->
        <g opacity="0.3">
            <circle cx="280" cy="160" r="30" fill="#15803d"/>
            <circle cx="500" cy="180" r="40" fill="#15803d"/>
            <circle cx="350" cy="270" r="35" fill="#15803d"/>
            <line x1="280" y1="160" x2="500" y2="180" stroke="#ffffff" stroke-width="2"/>
            <line x1="280" y1="160" x2="350" y2="270" stroke="#ffffff" stroke-width="2"/>
            <line x1="350" y1="270" x2="500" y2="180" stroke="#ffffff" stroke-width="2"/>
        </g>
        <!-- Walking Puma / Cougar silhouette -->
        <path d="M 310 230 C 330 200 370 195 400 195 L 470 195 Q 500 195 520 220 C 510 200 500 190 475 190 L 400 190 C 350 190 320 215 310 230 Z" fill="#f59e0b" opacity="0.9"/>
        <!-- Paw prints -->
        <circle cx="350" cy="260" r="5" fill="#f59e0b"/>
        <circle cx="340" cy="250" r="2.5" fill="#f59e0b"/>
        <circle cx="348" cy="245" r="2.5" fill="#f59e0b"/>
        <circle cx="358" cy="248" r="2.5" fill="#f59e0b"/>
        
        <circle cx="430" cy="250" r="5" fill="#f59e0b"/>
        <circle cx="420" cy="240" r="2.5" fill="#f59e0b"/>
        <circle cx="428" cy="235" r="2.5" fill="#f59e0b"/>
        <circle cx="438" cy="238" r="2.5" fill="#f59e0b"/>
        
    
    <!-- Label Badges & Text Overlay -->
    <!-- Grupo badge -->
    <rect x="40" y="40" width="230" height="30" rx="4" fill="rgba(255,255,255,0.12)" stroke="rgba(255,255,255,0.2)" stroke-width="1" style="backdrop-filter: blur(5px);"/>
    <text x="55" y="59" fill="#ffffff" font-family="'Noto Sans', sans-serif" font-size="11" font-weight="bold" letter-spacing="0.5">Grupo 3: Conectividad y Biodiversidad</text>
    
    <!-- ID Display -->
    <text x="760" y="80" fill="rgba(255,255,255,0.08)" font-family="'Noto Sans', sans-serif" font-size="72" font-weight="bold" text-anchor="end">12</text>
    
    <!-- Title -->
    <text x="40" y="360" fill="#ffffff" font-family="'Noto Sans', sans-serif" font-size="20" font-weight="bold">
        <tspan x="40" dy="0">Paso del Puma</tspan>
    </text>
    
    <!-- Institution / Country -->
    <text x="40" y="400" fill="#10b981" font-family="'Noto Sans', sans-serif" font-size="13" font-weight="bold">Asociación de Organizaciones del Corredor Bio... | <tspan fill="#ffffff" font-weight="normal">Costa Rica</tspan></text>
</svg>
