<svg xmlns="http://www.w3.org/2000/svg" viewBox="0 0 800 450" width="100%" height="100%">
    <defs>
        <linearGradient id="bgGrad" x1="0%" y1="0%" x2="100%" y2="100%">
            <stop offset="0%" stop-color="#002266"/>
            <stop offset="100%" stop-color="#1f1402"/>
        </linearGradient>
        <linearGradient id="mountGrad" x1="50%" y1="0%" x2="50%" y2="100%">
            <stop offset="0%" stop-color="#eab308" stop-opacity="0.8"/>
            <stop offset="100%" stop-color="#002266" stop-opacity="0.2"/>
        </linearGradient>
        <linearGradient id="fireGrad" x1="50%" y1="0%" x2="50%" y2="100%">
            <stop offset="0%" stop-color="#ef4444"/>
            <stop offset="100%" stop-color="#ea580c"/>
        </linearGradient>
        <marker id="arrow" viewBox="0 0 10 10" refX="5" refY="5" markerWidth="6" markerHeight="6" orient="auto-start-reverse">
            <path d="M 0 1 L 10 5 L 0 9 z" fill="#ffffff"/>
        </marker>
    </defs>
    
    <!-- Background -->
    <rect width="100%" height="100%" fill="url(#bgGrad)"/>
    
    <!-- Background Grid -->
    <g opacity="0.15"><line x1="0" y1="45" x2="800" y2="45" stroke="#ffffff" stroke-width="1"/><line x1="80" y1="0" x2="80" y2="450" stroke="#ffffff" stroke-width="1"/><line x1="0" y1="90" x2="800" y2="90" stroke="#ffffff" stroke-width="1"/><line x1="160" y1="0" x2="160" y2="450" stroke="#ffffff" stroke-width="1"/><line x1="0" y1="135" x2="800" y2="135" stroke="#ffffff" stroke-width="1"/><line x1="240" y1="0" x2="240" y2="450" stroke="#ffffff" stroke-width="1"/><line x1="0" y1="180" x2="800" y2="180" stroke="#ffffff" stroke-width="1"/><line x1="320" y1="0" x2="320" y2="450" stroke="#ffffff" stroke-width="1"/><line x1="0" y1="225" x2="800" y2="225" stroke="#ffffff" stroke-width="1"/><line x1="400" y1="0" x2="400" y2="450" stroke="#ffffff" stroke-width="1"/><line x1="0" y1="270" x2="800" y2="270" stroke="#ffffff" stroke-width="1"/><line x1="480" y1="0" x2="480" y2="450" stroke="#ffffff" stroke-width="1"/><line x1="0" y1="315" x2="800" y2="315" stroke="#ffffff" stroke-width="1"/><line x1="560" y1="0" x2="560" y2="450" stroke="#ffffff" stroke-width="1"/><line x1="0" y1="360" x2="800" y2="360" stroke="#ffffff" stroke-width="1"/><line x1="640" y1="0" x2="640" y2="450" stroke="#ffffff" stroke-width="1"/><line x1="0" y1="405" x2="800" y2="405" stroke="#ffffff" stroke-width="1"/><line x1="720" y1="0" x2="720" y2="450" stroke="#ffffff" stroke-width="1"/><circle cx="400" cy="225" r="160" fill="none" stroke="#ffcc00" stroke-dasharray="5,5" stroke-width="1.5"/><circle cx="400" cy="225" r="230" fill="none" stroke="#eab308" stroke-dasharray="10,5" stroke-width="1"/></g>
    
    <!-- Unique Graphic Content -->
    
        <g opacity="0.3">
            <rect x="280" y="160" width="10" height="100" fill="#ffffff"/>
            <rect x="300" y="160" width="4" height="100" fill="#ffffff"/>
            <rect x="310" y="160" width="15" height="100" fill="#ffffff"/>
            <rect x="335" y="160" width="8" height="100" fill="#ffffff"/>
            <rect x="350" y="160" width="20" height="100" fill="#ffffff"/>
            <rect x="380" y="160" width="4" height="100" fill="#ffffff"/>
        </g>
        <line x1="260" y1="210" x2="420" y2="210" stroke="#ef4444" stroke-width="3"/>
        <circle cx="450" cy="210" r="45" fill="#047857" stroke="#34d399" stroke-width="3"/>
        <path d="M 430 220 Q 450 185 470 200 Q 450 235 430 220 Z" fill="#34d399"/>
        <line x1="430" y1="220" x2="470" y2="200" stroke="#047857" stroke-width="2"/>
        <text x="450" y="240" fill="#ffffff" font-family="monospace" font-size="8" font-weight="bold" text-anchor="middle">EUDR OK</text>
        
    
    <!-- Label Badges & Text Overlay -->
    <!-- Grupo badge -->
    <rect x="40" y="40" width="230" height="30" rx="4" fill="rgba(255,255,255,0.12)" stroke="rgba(255,255,255,0.2)" stroke-width="1" style="backdrop-filter: blur(5px);"/>
    <text x="55" y="59" fill="#ffffff" font-family="'Noto Sans', sans-serif" font-size="11" font-weight="bold" letter-spacing="0.5">Grupo 4: Agricultura y EUDR</text>
    
    <!-- ID Display -->
    <text x="760" y="80" fill="rgba(255,255,255,0.08)" font-family="'Noto Sans', sans-serif" font-size="72" font-weight="bold" text-anchor="end">20</text>
    
    <!-- Title -->
    <text x="40" y="360" fill="#ffffff" font-family="'Noto Sans', sans-serif" font-size="20" font-weight="bold">
        <tspan x="40" dy="0">AGROEUDR_MIAMBIENTE</tspan>
    </text>
    
    <!-- Institution / Country -->
    <text x="40" y="400" fill="#eab308" font-family="'Noto Sans', sans-serif" font-size="13" font-weight="bold">Ministerio de Ambiente | <tspan fill="#ffffff" font-weight="normal">Panamá</tspan></text>
</svg>
